<svg version="1.1" xmlns="http://www.w3.org/2000/svg" fill-rule="evenodd" clip-rule="evenodd" height="1024" width="1024" viewBox="0 0 1024 1024"><path d="M1016 511.25c0 277.938-225.313 503.25-503.25 503.25S9.5 789.187 9.5 511.25 234.812 8 512.75 8 1016 233.312 1016 511.25zM283.046 773.951c19.514-30.482 34.473-70.069 44.883-118.76 32.896 63.374 94.319 95.9 184.273 97.572 72.482 1.486 167.267 2.043 284.354 1.673 3.715-12.641 8.921-27.32 15.611-44.047-101.105 2.23-197.192 2.971-288.258 2.23-33.64-0.375-63.378-5.763-89.209-16.169L434.7 591.072l84.749 0 0-40.144-84.749 0 0-86.422 89.209 0 0-40.702L419.09 423.804l0-79.731 93.67 0 0-40.702-93.67 0 0-79.173L375.6 224.198l0 79.173-94.785 0 0 40.702L375.6 344.073l0 79.731L261.301 423.804l0 40.702 131.584 0 0 207.69c-23.047-17.842-41.538-41.721-55.477-71.646 4.086-30.666 6.782-64.119 8.084-100.36l-41.259-2.23c-2.23 99.62-17.472 174.145-45.72 223.581C267.434 739.008 275.61 756.479 283.046 773.951zM592.49 443.32l131.584 0 0 18.957 42.374 0L766.448 257.095 539.522 257.095l0 40.145 184.552 0 0 105.936L550.116 403.176l0 181.207c0 42.374 20.629 63.562 61.889 63.562l112.069 0c39.77 0 62.446-15.611 68.021-46.835 3.346-16.727 6.69-43.115 10.036-79.173-16.727-5.576-30.853-10.964-42.374-16.169-1.86 33.083-3.903 57.986-6.134 74.712-2.604 18.217-14.313 27.32-35.126 27.32l-95.899 0c-20.072 0-30.108-10.036-30.108-30.107L592.49 443.32z" fill="#d81e06"></path></svg>